<?xml version="1.0" encoding="UTF-8"?>
<svg version="1.1" xmlns="http://www.w3.org/2000/svg" width="1414" height="2000">
<path d="M0 0 C466.62 0 933.24 0 1414 0 C1414 660 1414 1320 1414 2000 C947.38 2000 480.76 2000 0 2000 C0 1340 0 680 0 0 Z " fill="#FEFEFE" transform="translate(0,0)"/>
<path d="M0 0 C7.4845279 4.65342387 12.4922266 11.97891407 14.5 20.5 C15.18341238 27.09337621 15.76902952 34.01124777 11.5 39.5 C9.6640625 40.375 9.6640625 40.375 7.5 40.5 C5.3515625 38.953125 5.3515625 38.953125 3.125 36.75 C-1.08367905 32.80996004 -4.51339164 30.0309526 -10.3125 29 C-21.17921277 30.7045824 -29.44988184 39.69461651 -35.75 48.0625 C-51.51544481 69.81732886 -62.5049886 95.64502115 -69.5 121.5 C-69.70882812 122.26054688 -69.91765625 123.02109375 -70.1328125 123.8046875 C-72.6481724 133.26116711 -73.86041254 142.39493172 -73.9375 152.1875 C-73.94765137 153.09604736 -73.95780273 154.00459473 -73.96826172 154.94067383 C-73.89161341 160.76324621 -73.01677461 165.22365606 -70.5 170.5 C-66.81818322 172.95454452 -63.77599229 173.31327697 -59.5 172.5 C-46.87729385 162.74609071 -42.99816411 142.38547747 -38.32275391 127.75585938 C-27.70067086 94.62780772 -27.70067086 94.62780772 -17.5 88.5 C-13.06309582 87.6234906 -8.56641745 87.55337301 -4.40234375 89.4609375 C4.09713535 95.92427765 6.47436679 108.00848542 8.625 117.875 C9.00446777 119.56967407 9.00446777 119.56967407 9.39160156 121.29858398 C11.96089455 133.08169315 13.69260135 144.92515962 14.98046875 156.91015625 C16.47210493 170.76265387 18.11318551 184.95447154 24.5 197.5 C24.5 198.16 24.5 198.82 24.5 199.5 C28.76957618 200.21159603 31.18523997 200.32599372 34.90625 197.98828125 C66.26937342 171.1410506 79.03782795 121.17578525 85.01782227 82.08618164 C88.67826408 58.78942447 88.67826408 58.78942447 97.5 51.5 C104.28385919 50.92509668 110.79454116 51.34793047 116.25 55.6875 C121.18296023 61.85370029 123.62371367 67.16477016 123.6328125 75.09375 C123.63474609 76.19710693 123.63667969 77.30046387 123.63867188 78.43725586 C123.63416016 79.61296143 123.62964844 80.78866699 123.625 82 C123.62306641 83.2072876 123.62113281 84.4145752 123.61914062 85.65844727 C123.58060509 93.74609344 123.32889391 101.79705438 122.8581543 109.87011719 C122.4964937 116.08676968 122.41083097 122.27291245 122.5 128.5 C122.735979 127.95174561 122.97195801 127.40349121 123.21508789 126.83862305 C132.27346181 105.91898121 132.27346181 105.91898121 138.5 97.5 C139.02851562 96.778125 139.55703125 96.05625 140.1015625 95.3125 C147.21039953 86.41803092 159.11713089 79.12833959 170.5 77.5 C173.83430228 77.33503118 177.16207902 77.31491878 180.5 77.3125 C181.38945313 77.30025391 182.27890625 77.28800781 183.1953125 77.27539062 C189.25542871 77.2618232 193.38590276 77.54446005 198 81.8125 C202.59601979 87.7586006 204.5483854 95.51250719 206.8203125 102.57421875 C207.14805664 103.58657593 207.14805664 103.58657593 207.48242188 104.61938477 C208.09670982 106.53670067 208.69332273 108.45965258 209.2890625 110.3828125 C210.39700465 113.23487003 211.14272823 114.63325877 213.5 116.5 C213.40332031 115.60667969 213.30664062 114.71335937 213.20703125 113.79296875 C213.22666554 107.75618039 215.9520868 102.31651653 218.1875 96.8125 C218.92093628 94.98017822 218.92093628 94.98017822 219.66918945 93.11083984 C247.434821 24.35626732 247.434821 24.35626732 272.54296875 11.61328125 C278.7240704 9.28618221 284.30738802 9.31214828 290.4921875 11.61328125 C299.01584211 15.89820789 304.43437949 21.3859254 307.62670898 30.41796875 C310.86351846 41.84136344 310.89347456 54.36199308 311.39028931 66.16281128 C311.50409687 68.84661207 311.62721324 71.52985514 311.75268555 74.21313477 C311.92501273 77.90322517 312.09545847 81.59338883 312.26318359 85.28369141 C312.30328552 86.1659137 312.34338745 87.04813599 312.38470459 87.95709229 C312.45790743 89.57162382 312.53089064 91.18616533 312.60357666 92.80072021 C311.36071337 169.32540737 311.36071337 169.32540737 335.5 238.5 C337.87883489 239.8259856 337.87883489 239.8259856 340.5 239.5 C356.87478703 232.23969197 366.53061535 214.71125828 374.5 199.5 C374.88124023 198.78086426 375.26248047 198.06172852 375.65527344 197.32080078 C386.58810421 176.41980077 393.92172319 153.5569195 398.92529297 130.54394531 C405.78147827 99.22927643 418.44102186 67.47613622 437.5 41.5 C437.88510742 40.9750293 438.27021484 40.45005859 438.66699219 39.90917969 C444.20923175 32.406719 450.10898181 25.30023593 456.5 18.5 C457.07105469 17.86449219 457.64210938 17.22898437 458.23046875 16.57421875 C466.31026583 7.91866415 479.43741026 -0.84204056 491.5 -1.5 C492.22058594 -1.55027344 492.94117188 -1.60054687 493.68359375 -1.65234375 C502.00959982 -2.00335581 507.63178136 0.98547776 513.703125 6.52734375 C519.34900116 12.72553388 520.6952423 19.78544813 520.75 27.9375 C520.7809375 29.0831543 520.7809375 29.0831543 520.8125 30.25195312 C520.83598932 33.62560734 520.75834623 35.95562758 519.296875 39.03515625 C517.5 40.5 517.5 40.5 515.06640625 41.0234375 C511.59760848 40.31595059 510.61510203 38.86973099 508.4375 36.125 C505.99655646 33.07986251 504.20835956 30.86700313 500.5 29.5 C493.60655157 28.82195589 489.35233424 30.4472963 483.91333008 34.75732422 C459.82919082 56.0733941 445.93765823 89.09752553 437.5 119.5 C437.30390137 120.16580078 437.10780273 120.83160156 436.90576172 121.51757812 C434.04023026 131.40518461 433.12354509 140.89314312 433.0625 151.1875 C433.0524292 152.29851074 433.0423584 153.40952148 433.03198242 154.55419922 C433.10618566 161.46825735 433.36737606 167.36737606 438.5 172.5 C444.38929961 173.24420678 444.38929961 173.24420678 449.4284668 170.33642578 C460.27813101 160.9969474 463.66479554 141.71908058 467.87231445 128.66137695 C478.46691371 95.93632919 478.46691371 95.93632919 487.58203125 89.32421875 C491.47273237 87.65224739 495.41216706 87.52700731 499.5 88.5 C504.44130867 91.14287992 506.67299419 93.75302133 509.125 98.75 C509.67414062 99.82765625 510.22328125 100.9053125 510.7890625 102.015625 C515.9950995 114.47800608 517.4795912 128.14774505 519.0625 141.4375 C521.70256765 164.34057762 521.70256765 164.34057762 526.9375 186.75 C527.12892578 187.44222656 527.32035156 188.13445312 527.51757812 188.84765625 C528.7864384 193.14289199 530.29910622 196.33575767 533.5 199.5 C539.47293143 199.72539364 543.11598778 197.17739293 547.5 193.5 C567.5777383 170.527332 577.44970263 138.02262648 587.02978516 109.57250977 C589.43234764 102.47222983 591.97519267 95.47563521 594.875 88.5625 C595.18477783 87.81766357 595.49455566 87.07282715 595.8137207 86.30541992 C598.07965899 81.0453602 600.81619762 75.01285178 605.5 71.5 C606.82 71.5 608.14 71.5 609.5 71.5 C609.91997404 80.65730055 608.95324898 88.4735619 606.375 97.25 C606.02590576 98.47098389 605.67681152 99.69196777 605.31713867 100.94995117 C598.3214276 125.05056954 590.01669447 148.85705311 580.625 172.125 C580.37231354 172.75628815 580.11962708 173.38757629 579.85928345 174.03799438 C569.60740252 199.50239798 569.60740252 199.50239798 560.6875 208.5 C560.18250977 209.02706543 559.67751953 209.55413086 559.15722656 210.09716797 C550.94251373 218.39121291 540.74191271 224.75482934 528.85229492 225.01855469 C528.0966626 225.01243164 527.34103027 225.00630859 526.5625 225 C525.37781128 224.99468262 525.37781128 224.99468262 524.16918945 224.98925781 C517.87661052 224.80993393 513.47514814 223.4777991 508.5 219.5 C507.63375 218.943125 506.7675 218.38625 505.875 217.8125 C491.78883696 204.09702546 484.91141291 182.22160602 480.5 163.5 C472.89075333 167.83860555 466.94346001 173.80506766 461.30078125 180.43359375 C453.00878152 189.94870841 443.05436506 201.24239089 429.91015625 202.80859375 C421.57077455 203.19456794 415.17617139 200.90365052 408.25 196.375 C403.55366784 191.4651982 400.47245853 185.57110634 397.5 179.5 C396.49705752 181.47767719 395.49790744 183.45727743 394.5 185.4375 C394.02687378 186.37553467 394.02687378 186.37553467 393.54418945 187.33251953 C391.83489768 190.74606216 390.17713629 194.17309844 388.60546875 197.65234375 C377.93652399 221.22537035 360.97549913 250.8170568 336.1875 261.5 C325.95672956 265.03033628 317.01703179 264.65456892 307.21875 260.0390625 C292.82159883 251.88895106 287.13568651 237.22627894 281.5 222.5 C280.97212891 221.12328125 280.97212891 221.12328125 280.43359375 219.71875 C276.0676589 206.73523694 275.27160425 192.54391281 274.4765625 178.98046875 C274.43420031 178.26889303 274.39183811 177.55731731 274.34819221 176.8241787 C273.09472732 155.28672603 272.85745525 133.71102473 272.49383545 112.14434814 C272.34396875 103.28077998 272.18629391 94.41736773 272.02136421 85.55406761 C271.96600955 82.49030588 271.91622049 79.42648953 271.8669281 76.36262512 C271.83330114 74.49215298 271.79946369 72.6216846 271.76538086 70.7512207 C271.75341675 69.91343079 271.74145264 69.07564087 271.72912598 68.21246338 C271.63827192 63.55440811 271.26070435 59.09777 270.5 54.5 C251.72969748 62.54441537 241.83514656 84.40718129 234.47265625 102.37109375 C229.38246148 115.16908884 225.20542982 128.24005421 221.5 141.5 C221.14228516 142.77447998 221.14228516 142.77447998 220.77734375 144.07470703 C217.37188527 156.48760318 215.44488 168.97173316 214.10668945 181.75805664 C213.0147153 191.26147522 211.10426931 200.85238957 205.125 208.5625 C199.97555222 212.36328288 195.066756 215.6310303 188.5625 215.8125 C187.68722656 215.84988281 186.81195312 215.88726563 185.91015625 215.92578125 C183.5 215.5 183.5 215.5 181.86767578 213.93043518 C179.97514129 210.56729716 180.16119484 208.03691172 180.20703125 204.18725586 C180.21141205 203.45641281 180.21579285 202.72556976 180.2203064 201.97257996 C180.23171239 200.38583737 180.25004987 198.79913288 180.27450562 197.21253777 C180.31299428 194.68235038 180.33239902 192.15263917 180.34692383 189.62220764 C180.3869427 183.32432729 180.45874361 177.02688719 180.53112793 170.72930908 C180.59104974 165.42526654 180.6377027 160.12140822 180.66781616 154.81711006 C180.68687083 152.35852471 180.72441594 149.90071207 180.76293945 147.44236755 C180.84348225 139.22894314 180.39861851 131.29877182 179.13671875 123.17407227 C178.95341255 121.99332957 178.95341255 121.99332957 178.7664032 120.78873348 C177.79555743 115.11366328 176.42084059 109.90070466 172.5 105.5 C168.60844029 102.87056776 164.07526274 102.96621935 159.5 103.5 C150.95638527 105.44024838 145.63863014 110.48469911 140.875 117.625 C128.70812494 137.84868718 126.17949539 160.79987033 126.11914062 183.93334961 C126.06725577 195.81627916 125.04320169 205.63436486 116.5703125 214.67578125 C109.77197026 220.66601866 102.92473885 223.89596961 93.8828125 223.77734375 C91.5 223.5 91.5 223.5 88.9375 221.875 C85.55173509 216.28112755 86.20684593 208.87387231 85.96484375 202.50390625 C85.92186661 201.43816879 85.87888947 200.37243134 85.83460999 199.2743988 C85.74459165 197.01934955 85.65645382 194.76422455 85.57006836 192.5090332 C85.43915047 189.10540927 85.30110534 185.70213063 85.16210938 182.29882812 C84.71290166 171.02709359 84.34393851 159.78151148 84.5 148.5 C83.84 148.5 83.18 148.5 82.5 148.5 C82.37633057 149.21446289 82.25266113 149.92892578 82.12524414 150.66503906 C81.48839343 153.55262612 80.58745357 156.11291941 79.49609375 158.859375 C79.08939453 159.88442139 78.68269531 160.90946777 78.26367188 161.96557617 C57.93431361 212.31367204 57.93431361 212.31367204 35.62890625 222.625 C27.65970643 225.90041424 16.90988565 225.92710308 8.59765625 223.734375 C6.25964518 222.53366045 4.47636493 221.23372211 2.5 219.5 C1.67371094 218.79488281 0.84742188 218.08976562 -0.00390625 217.36328125 C-11.03717904 207.15215993 -15.80820727 194.7733028 -20.64160156 180.92919922 C-22.01738828 177.03583238 -23.47750404 173.17490466 -24.9375 169.3125 C-25.43635459 167.98573598 -25.93506887 166.65891919 -26.43359375 165.33203125 C-26.78550781 164.39746094 -27.13742187 163.46289062 -27.5 162.5 C-33.80367023 167.4624638 -38.50169235 173.25646936 -43.5 179.5 C-51.08412304 188.91106766 -62.17460289 200.03492058 -74.5 202.5 C-83.86085095 203.32783036 -91.06082899 201.32195992 -98.5 195.5 C-105.23866156 189.5196533 -108.79937858 180.88310153 -109.94946289 172.04663086 C-110.09766063 168.49615416 -110.09161152 164.98977853 -110 161.4375 C-109.9801001 160.16817627 -109.9602002 158.89885254 -109.93969727 157.59106445 C-108.72933488 106.87463324 -84.79191015 56.25810917 -50.5 19.5 C-49.7678125 18.71367188 -49.035625 17.92734375 -48.28125 17.1171875 C-36.23718947 4.60663167 -18.05167479 -7.80140209 0 0 Z " fill="#020202" transform="translate(663.5,830.5)"/>
<path d="M0 0 C3.66600574 2.7289766 6.844082 5.70192353 10 9 C10.70511719 9.68578125 11.41023437 10.3715625 12.13671875 11.078125 C25.30125149 24.61878725 29.61858402 42.96190976 29.40478516 61.30712891 C28.77264037 82.68677699 25.16531554 104.5152419 19 125 C23.64415776 121.11407208 27.95796907 117.04644322 32.16601562 112.69970703 C43.89927669 100.63716546 61.19166284 84.15069476 78.75 82.6875 C83.53267416 82.79417675 87.20434121 84.06877696 91 87 C102.17204463 99.83650275 103.06506542 117.87554519 105 134 C109.20649182 132.49813344 110.39355012 130.05450382 112.43359375 126.19921875 C112.74766174 125.61532883 113.06172974 125.0314389 113.38531494 124.42985535 C114.06003537 123.17431665 114.73006311 121.91624699 115.39584351 120.65594482 C117.15856209 117.32489059 118.9625352 114.01635839 120.765625 110.70703125 C121.12601364 110.04429199 121.48640228 109.38155273 121.85771179 108.69873047 C136.98993282 80.9899943 155.46186903 54.08823028 176.56738281 30.59570312 C177.87450526 29.13978078 179.16844624 27.67205158 180.4609375 26.203125 C182.61155734 23.77330188 184.7932898 21.3789217 187 19 C187.74121094 18.19304688 188.48242188 17.38609375 189.24609375 16.5546875 C200.37342954 4.89747858 217.09325573 -9.29610186 233.85546875 -10.14453125 C237.24555494 -10.18908435 240.61185442 -10.12141171 244 -10 C245.16144531 -9.95875 246.32289063 -9.9175 247.51953125 -9.875 C255.27164127 -9.44974139 260.65313083 -8.71166045 266.125 -2.875 C283.70540861 18.99668946 272.96883939 63.89793258 270.15908813 89.88790894 C268.14128027 108.29215693 265.85298748 126.66075075 263.3125 145 C263.21003967 145.74113037 263.10757935 146.48226074 263.00201416 147.24584961 C262.11807492 153.60278797 261.22802803 159.953308 260.0390625 166.26171875 C258.44960424 174.73514835 257.28456498 183.27995749 256.0625 191.8125 C255.92993805 192.73641541 255.7973761 193.66033081 255.66079712 194.61224365 C253.31673593 211.03608764 251.3167083 227.4584748 250 244 C249.90501221 245.12100098 249.81002441 246.24200195 249.7121582 247.39697266 C248.79399398 259.70282175 248.81389589 272.0167322 248.81469727 284.3515625 C248.81251661 288.0964709 248.79431645 291.84108113 248.77539062 295.5859375 C248.26597628 338.51801455 248.26597628 338.51801455 267 376 C268.98157528 377.5672001 268.98157528 377.5672001 271.0625 378.75 C271.73410156 379.15734375 272.40570312 379.5646875 273.09765625 379.984375 C280.52139403 383.94776683 288.25288103 381.92507229 295.91015625 379.65625 C296.59980469 379.4396875 297.28945313 379.223125 298 379 C298.47266098 370.52642875 298.47266098 370.52642875 295 363 C294.8125 359.6875 294.8125 359.6875 295 357 C296.32 356.34 297.64 355.68 299 355 C305.25418298 359.19062006 311.67557409 363.77821888 313.61328125 371.41796875 C314.00658791 376.39214118 313.02548722 379.63646322 310.125 383.6875 C302.96000092 391.8822864 293.80889361 397.52782094 283 399 C265.44498962 399.98262706 249.01111359 396.88082051 235.20800781 385.24121094 C224.31876567 375.4569786 217.57797575 363.32595483 212 350 C211.525625 348.91460938 211.05125 347.82921875 210.5625 346.7109375 C206.33865083 336.17645652 205.14851183 325.22305512 204 314 C203.90356201 313.0929834 203.80712402 312.1859668 203.70776367 311.25146484 C202.86570081 302.46491757 202.80205534 293.69261745 202.8125 284.875 C202.81243958 284.08919556 202.81237915 283.30339111 202.81231689 282.49377441 C202.8337235 262.83056648 204.47580155 243.48848185 207 224 C207.08552124 223.33389709 207.17104248 222.66779419 207.25915527 221.98150635 C211.26189786 190.84684976 216.79649429 160.06031173 222.85986328 129.26806641 C225.59023946 115.24327411 227.93135601 101.13767382 230 87 C230.17958252 85.79287354 230.35916504 84.58574707 230.54418945 83.34204102 C231.62476695 74.47431067 231.30529454 65.42751902 231.35009766 56.50927734 C231.36672442 54.08274795 231.39410135 51.65626884 231.43212891 49.22998047 C231.48685185 45.71296056 231.50875565 42.19707549 231.5234375 38.6796875 C231.55744156 37.05762894 231.55744156 37.05762894 231.59213257 35.40280151 C231.61374741 28.89568607 231.61374741 28.89568607 228.59228516 23.33251953 C225.7596171 20.7837052 224.91552937 20.07724383 221.17578125 19.76171875 C214.75688776 20.24333315 210.05959409 24.85488643 205.7421875 29.3515625 C203.37548421 32.15937177 201.17232921 35.03906052 199 38 C198.5973291 38.5470459 198.1946582 39.0940918 197.77978516 39.65771484 C182.15527226 61.09374745 169.58063575 84.69677084 157 108 C156.6637561 108.62263733 156.32751221 109.24527466 155.9810791 109.88677979 C144.07839556 131.94929974 132.64138145 154.24750479 121.24005127 176.57202148 C100.92118996 216.35566587 100.92118996 216.35566587 91.31860352 233.60644531 C90.34742488 235.36934762 89.3918492 237.14086761 88.44506836 238.91699219 C87.92050049 239.89829102 87.39593262 240.87958984 86.85546875 241.890625 C86.38004639 242.78813477 85.90462402 243.68564453 85.41479492 244.61035156 C83.30791299 248.16896422 81.61015457 249.93705453 78 252 C73.82623371 252.14392298 71.88483452 251.78651957 68.75 249 C62.46219584 238.22090715 62.83858882 226.19007334 62.796875 214.0625 C62.79007719 212.70717337 62.78321957 211.35184704 62.77630615 209.996521 C62.76063694 206.40383923 62.75415366 202.81120393 62.75161743 199.2184906 C62.75053748 197.73721761 62.74880616 196.25594494 62.74642944 194.77467346 C62.71563184 175.20440333 63.0916051 155.92300688 65.33203125 136.45703125 C66.37623964 127.31304172 66.28217418 118.1863373 66 109 C64.39734589 108.95936456 62.79439437 108.9303443 61.19140625 108.90625 C60.29881104 108.88884766 59.40621582 108.87144531 58.48657227 108.85351562 C54.67097647 109.07829299 52.88690268 110.54306154 50 113 C49.32453125 113.54785156 48.6490625 114.09570312 47.953125 114.66015625 C42.37759289 119.34168062 37.81214601 124.54656784 33.34863281 130.28027344 C31.83142334 132.21496271 30.28710541 134.12643449 28.7421875 136.0390625 C2.89990242 168.29245047 -12.94187409 205.55042631 -27.25848389 244.00933838 C-58.4405908 327.7202954 -58.4405908 327.7202954 -73 335 C-75.8125 335.4375 -75.8125 335.4375 -79 335 C-81.68802645 332.88389407 -82.71188774 332.01376668 -84 329 C-84.89536994 318.80858339 -80.2789696 308.0196324 -77.3125 298.4375 C-76.78879074 296.71317063 -76.26599876 294.98856238 -75.74414062 293.26367188 C-72.98026712 284.17472839 -70.10167842 275.13084825 -67.03205872 266.14024353 C-65.34809446 261.17884803 -63.87767975 256.17965598 -62.5 251.125 C-62.27231934 250.29266846 -62.04463867 249.46033691 -61.81005859 248.6027832 C-61.63297363 247.94624756 -61.45588867 247.28971191 -61.2734375 246.61328125 C-59.96450699 241.82373913 -58.55696885 237.06652416 -57.125 232.3125 C-56.87548584 231.48258545 -56.62597168 230.6526709 -56.36889648 229.79760742 C-55.03620915 225.38189413 -53.68284878 220.97326551 -52.30859375 216.5703125 C-48.02017937 202.77191424 -44.28706252 188.87551499 -40.73291016 174.87109375 C-39.84847727 171.40642663 -38.93045511 167.95258237 -38 164.5 C-37.69835937 163.365625 -37.39671875 162.23125 -37.0859375 161.0625 C-36.48183568 158.79211345 -35.87003124 156.52418216 -35.25097656 154.2578125 C-30.58395974 137.13634123 -26.69828586 119.97313351 -23.61816406 102.50341797 C-23.24129222 100.36751319 -22.85503818 98.23320105 -22.45214844 96.10205078 C-19.79780964 81.89368655 -19.69288535 67.65859193 -19.625 53.25 C-19.6169635 52.28252838 -19.608927 51.31505676 -19.60064697 50.31826782 C-19.01125622 32.76312604 -19.01125622 32.76312604 -25.75 17.0625 C-31.32685717 11.44513297 -35.26860112 9.74455934 -43.1875 9.4375 C-62.61685349 10.04824589 -79.23279557 24.44871879 -92 38 C-98.4950729 45.30938635 -104.63865697 53.22412683 -109 62 C-109.72703125 63.46179688 -109.72703125 63.46179688 -110.46875 64.953125 C-113.66566251 72.44810877 -114.48233012 79.15963598 -114.5625 87.25 C-114.57716309 88.16040039 -114.59182617 89.07080078 -114.60693359 90.00878906 C-114.48164908 98.33794498 -112.29934131 106.27888842 -106.5 112.5 C-105.64921875 113.44359375 -105.64921875 113.44359375 -104.78125 114.40625 C-102.06061724 116.84050036 -99.78641433 117.87766888 -96.1875 118.4375 C-92.85191446 117.97967453 -92.17189366 117.53007167 -89.6875 115.5 C-86.14981803 112.7265834 -83.4309416 112.46949732 -79.015625 112.53125 C-76.45541885 113.12664678 -75.53887181 113.87988249 -74 116 C-73.04557134 120.51418959 -73.6087431 124.20243786 -75.625 128.3125 C-79.93438772 133.18891242 -85.20741641 136.53271893 -91.7265625 137.3359375 C-104.3193441 137.50565154 -113.55470377 133.25545332 -123 125 C-131.10091091 116.79388245 -134.49094851 107.16788178 -134.49804688 95.73242188 C-134.47806641 94.68634766 -134.45808594 93.64027344 -134.4375 92.5625 C-134.44458984 91.52029297 -134.45167969 90.47808594 -134.45898438 89.40429688 C-134.36895184 78.23333641 -131.60115223 68.34018585 -126.9375 58.25 C-126.54755859 57.39873535 -126.15761719 56.5474707 -125.75585938 55.67041016 C-119.84854978 43.09272434 -112.78649332 31.92194651 -103 22 C-102.25492188 21.18273437 -101.50984375 20.36546875 -100.7421875 19.5234375 C-88.14144772 6.09096572 -69.98016615 -4.73846711 -52 -9 C-50.13794922 -9.52013672 -50.13794922 -9.52013672 -48.23828125 -10.05078125 C-31.16517156 -14.29620177 -14.57246622 -8.93928147 0 0 Z " fill="#020202" transform="translate(271,730)"/>
<path d="M0 0 C2.49066645 2.41436595 4.23110072 5.02908904 6 8 C10.40702452 15.10495366 15.04544958 20.22726895 21.703125 25.296875 C26.43890775 28.98026158 29.5099942 32.65496038 30.3828125 38.61328125 C30.67511276 45.65771761 29.27659179 50.96234989 24.81225586 56.46362305 C21.08086823 61.20898216 19.91051443 65.41558544 18.9375 71.3125 C17.4113596 79.47915862 15.66798493 86.99802261 11 94 C10.76936088 96.60417837 10.63378061 99.14176457 10.5625 101.75 C9.58649233 122.42738853 3.37975951 152.75852809 -12.6640625 167.38671875 C-17.77463151 170.91625888 -23.45573298 173.4668196 -29.06884766 176.09082031 C-31.73651284 177.34674764 -34.36815947 178.6709393 -37 180 C-38.3331234 180.66708637 -39.66641753 181.33383185 -41 182 C-39.68067347 188.33657308 -38.01285381 194.41483605 -36 200.5625 C-35.3821086 202.48154434 -34.76497052 204.40083133 -34.1484375 206.3203125 C-33.81038086 207.36993164 -33.47232422 208.41955078 -33.12402344 209.50097656 C-31.16700189 215.59307751 -29.22651443 221.69025934 -27.30273438 227.79293823 C-26.85401602 229.21282229 -26.40319828 230.63204473 -25.95019531 232.05056763 C-25.30798634 234.06206549 -24.67281243 236.07566723 -24.0390625 238.08984375 C-23.66990723 239.25378662 -23.30075195 240.41772949 -22.92041016 241.61694336 C-21.49174294 246.86814802 -20.90830666 252.07088209 -20.68359375 257.49609375 C-20.62075195 258.95112305 -20.62075195 258.95112305 -20.55664062 260.43554688 C-20.51732422 261.42619141 -20.47800781 262.41683594 -20.4375 263.4375 C-20.39431641 264.45521484 -20.35113281 265.47292969 -20.30664062 266.52148438 C-20.20131418 269.01421028 -20.09918328 271.50702338 -20 274 C-19.34 274 -18.68 274 -18 274 C-17.85304688 273.48695313 -17.70609375 272.97390625 -17.5546875 272.4453125 C-16.7277494 269.62231692 -15.86624398 266.81120686 -15 264 C-14.80132324 263.34580078 -14.60264648 262.69160156 -14.39794922 262.01757812 C-6.83281891 237.33315295 4.55613028 215.48710166 27.96777344 202.54370117 C36.8242087 197.86302923 44.96822102 197.02015182 55 198 C58.96675431 199.25891005 62.03050623 201.03050623 65 204 C65.86503587 211.0438635 64.05202015 215.28312809 60 221 C56.48596537 225.47399442 52.7860774 229.75534491 49 234 C48.55301758 234.5048291 48.10603516 235.0096582 47.64550781 235.52978516 C40.94236261 243.06526637 33.86635894 250.23128798 26.75 257.375 C25.91025635 258.2194165 25.0705127 259.06383301 24.20532227 259.93383789 C19.8290895 264.29882849 15.37885117 268.50355684 10.69287109 272.53417969 C5.23415782 277.26076095 0.31623017 282.5773437 -4.3359375 288.08984375 C-6 290 -6 290 -7.6640625 291.56640625 C-13.16702741 296.97449245 -13.87651417 303.63274577 -15 311 C-15.13003418 311.84578613 -15.26006836 312.69157227 -15.39404297 313.56298828 C-15.94497832 317.18073219 -16.4919125 320.79839392 -16.9987793 324.42260742 C-17.11519775 325.24736572 -17.23161621 326.07212402 -17.3515625 326.921875 C-17.45291504 327.66018555 -17.55426758 328.39849609 -17.65869141 329.15917969 C-18 331 -18 331 -19 333 C-21.8125 332.8125 -21.8125 332.8125 -25 332 C-31.17593953 324.9417834 -30.70174024 312.22541298 -31.5 303.375 C-31.62761529 302.00069561 -31.75563083 300.62642834 -31.8840332 299.25219727 C-32.26358117 295.16880015 -32.63189145 291.08444388 -33 287 C-33.21222413 284.68880066 -33.42446258 282.37760264 -33.63671875 280.06640625 C-33.82108793 278.02350733 -34.0047315 275.98054274 -34.1875 273.9375 C-34.27128906 273.01179199 -34.35507812 272.08608398 -34.44140625 271.13232422 C-34.82355902 266.73839102 -35.09426793 262.41608974 -35 258 C-36.10601563 257.86335938 -37.21203125 257.72671875 -38.3515625 257.5859375 C-43.36295834 256.95758386 -48.37058206 256.30676129 -53.375 255.625 C-54.25671875 255.5115625 -55.1384375 255.398125 -56.046875 255.28125 C-78.4137512 252.19842542 -94.53475888 239.87222115 -110 224 C-110.92232422 223.12794922 -110.92232422 223.12794922 -111.86328125 222.23828125 C-116.51159744 217.78255066 -121.42572035 212.99947183 -124 207 C-123.71914048 205.3236925 -123.39069157 203.65416111 -123 202 C-115.10469276 198.8777973 -107.42024144 198.50334918 -99.02539062 198.55395508 C-96.89873305 198.56240569 -94.77482741 198.53371601 -92.6484375 198.50195312 C-79.66464036 198.434646 -67.71083181 201.06331104 -55.75 206.1875 C-52.16764084 207.70577454 -48.78554601 209.11810495 -45 210 C-45.23710693 209.23856689 -45.47421387 208.47713379 -45.71850586 207.69262695 C-46.79409935 204.23338546 -47.86583782 200.77296131 -48.9375 197.3125 C-49.49727539 195.51522461 -49.49727539 195.51522461 -50.06835938 193.68164062 C-50.42607422 192.52470703 -50.78378906 191.36777344 -51.15234375 190.17578125 C-51.48226318 189.11270752 -51.81218262 188.04963379 -52.15209961 186.9543457 C-52.91056057 184.31163447 -53.50827945 181.70337033 -54 179 C-55.22589844 178.97421875 -56.45179688 178.9484375 -57.71484375 178.921875 C-68.06041212 178.61376539 -78.1531334 177.71785076 -88.375 176.0625 C-89.95075806 175.80774902 -89.95075806 175.80774902 -91.55834961 175.54785156 C-103.14416775 173.58589542 -109.77297022 171.3019556 -117.3125 161.75 C-118.02708374 160.84604492 -118.02708374 160.84604492 -118.75610352 159.92382812 C-123.11603931 154.20520786 -126.24071366 148.10111623 -129.24609375 141.59375 C-132.43661833 134.75598447 -132.43661833 134.75598447 -138.28515625 130.34765625 C-139.53167969 129.92355469 -140.77820313 129.49945312 -142.0625 129.0625 C-151.94714883 125.45902197 -164.03661548 119.92676904 -169 110 C-169.93021974 103.68779464 -168.64031609 98.35645357 -166.5 92.4375 C-163.50484153 84.3865528 -163.50484153 84.3865528 -164 76 C-165.71352406 72.44979234 -167.78584454 69.25389269 -170 66 C-173.22025287 61.10551731 -173.95568058 57.7708404 -173 52 C-169.24481907 41.08215915 -160.67224325 30.26235736 -150.5390625 24.6328125 C-142.27843423 20.63268019 -133.94738105 18.40728251 -124.83984375 17.3984375 C-114.45498231 16.23457808 -105.97889167 14.91273078 -96.875 9.62109375 C-92.01830739 6.88260539 -87.67143463 5.76076417 -82.11328125 5.69140625 C-81.00919922 5.66626953 -79.90511719 5.64113281 -78.76757812 5.61523438 C-76.48377617 5.58037702 -74.19991706 5.54906455 -71.91601562 5.52148438 C-64.50251278 5.34507485 -58.04065718 4.32041447 -51 2 C-50.29077393 1.76966064 -49.58154785 1.53932129 -48.85083008 1.30200195 C-45.74701925 0.26714063 -42.66515077 -0.83031941 -39.578125 -1.9140625 C-27.98972094 -5.43106723 -10.62271723 -6.72204031 0 0 Z " fill="#040404" transform="translate(797,495)"/>
<path d="M0 0 C-0.33 0.99 -0.66 1.98 -1 3 C-3.31 3.33 -5.62 3.66 -8 4 C-8.226875 4.845625 -8.45375 5.69125 -8.6875 6.5625 C-9.79009034 9.45023661 -10.61345878 10.96102518 -12.4375 13.3125 C-18.89289136 22.15524023 -19.01637741 32.4200714 -18 43 C-17.29224688 46.28569026 -16.33842768 48.89484779 -15 52 C-14.67 52.99 -14.34 53.98 -14 55 C-12.25739571 56.03445557 -12.25739571 56.03445557 -10 57 C-7.87269496 58.24607314 -5.74799909 59.49660466 -3.625 60.75 C20.68379431 74.80227048 48.41532497 78.97086004 76 73 C83.03860043 71.02870813 87.95086687 65.65451585 93.11328125 60.73828125 C95.42490865 58.54551967 97.76394742 56.44058274 100.1875 54.375 C103.10454058 51.85656124 105.80734897 49.19437099 108.5 46.4375 C116.82262287 38.0573806 116.82262287 38.0573806 121 36 C123.23046875 36.3515625 123.23046875 36.3515625 125 37 C125.32001511 42.3335852 124.67876606 45.3967989 122 50 C116.39074837 56.20482854 109.46188913 60.89727159 102.5625 65.54296875 C98.55941697 68.26304118 94.72538679 71.19479425 90.875 74.125 C72.7166498 87.82851889 72.7166498 87.82851889 65 88 C64.505 89.485 64.505 89.485 64 91 C61.65162182 91.98248475 59.42683328 92.77264855 57 93.5 C55.62227409 93.93060026 54.24466932 94.36158829 52.8671875 94.79296875 C52.19913086 94.99841309 51.53107422 95.20385742 50.84277344 95.41552734 C48.57270036 96.13552668 46.35418946 96.97556232 44.125 97.8125 C38.00292407 99.81107638 32.55689372 100.01350438 26.6875 97.1875 C24.65836898 96.07722076 22.96540768 94.97030638 21.20703125 93.4609375 C18.21721383 91.48183712 15.52556009 91.06964448 12 90.4375 C11.31010986 90.31310547 10.62021973 90.18871094 9.90942383 90.06054688 C4.1928376 89.08211775 -1.53898403 88.51958932 -7.3125 88 C-20.46341495 86.77233326 -29.40674722 84.59325278 -39 75 C-38.79918053 70.38115217 -37.5181716 66.5813777 -35.9375 62.25 C-33.10510168 53.79476648 -32.49436944 47.62382752 -36.41479492 39.39208984 C-38.4123223 35.45595021 -40.54863184 31.67705223 -43 28 C-43.14848957 20.87250078 -39.23032155 15.49854936 -35 10 C-32.96022409 7.95039385 -31.71413566 7.18005898 -29 6 C-26.125 6.25 -26.125 6.25 -24 7 C-23.67 6.01 -23.34 5.02 -23 4 C-15.81456085 0.73389129 -7.83083945 -1.94727802 0 0 Z " fill="#FBFBFB" transform="translate(680,525)"/>
<path d="M0 0 C1.25018921 0.00737183 1.25018921 0.00737183 2.52563477 0.01489258 C22.1224894 0.38152279 41.96781017 8.34281017 55.9375 22.3125 C55.9375 23.3025 55.9375 24.2925 55.9375 25.3125 C56.741875 25.456875 57.54625 25.60125 58.375 25.75 C60.9375 26.3125 60.9375 26.3125 61.9375 27.3125 C62.8176109 36.35249626 62.43616682 43.87236077 56.9375 51.3125 C44.43514848 65.9352944 21.6828723 74.36572163 3.0625 76.66796875 C-12.5055592 77.1663365 -32.14097201 73.21443251 -44.9375 64.3125 C-47.87551831 61.5473063 -48.97436111 59.57464893 -49.2578125 55.515625 C-49.23460937 54.54109375 -49.21140625 53.5665625 -49.1875 52.5625 C-49.16042969 51.08523438 -49.16042969 51.08523438 -49.1328125 49.578125 C-49.09800781 48.45664062 -49.09800781 48.45664062 -49.0625 47.3125 C-44.7066833 46.01688299 -42.40930754 46.65210136 -38.3125 48.5 C-37.26578125 48.96277344 -36.2190625 49.42554688 -35.140625 49.90234375 C-34.12484375 50.36769531 -33.1090625 50.83304688 -32.0625 51.3125 C-30.39657192 52.06413915 -28.72999216 52.81433713 -27.0625 53.5625 C-26.0415625 54.03429687 -26.0415625 54.03429687 -25 54.515625 C-15.37778358 58.4731495 -2.50276327 57.20401918 6.9375 53.3125 C14.95027942 49.40916855 19.98058295 43.2263341 23.9375 35.3125 C24.44671186 29.20195765 24.02602244 26.17452669 19.9375 21.3125 C10.92275661 12.54816615 -1.81813658 13.12703469 -13.58789062 12.79492188 C-14.49087891 12.76076172 -15.39386719 12.72660156 -16.32421875 12.69140625 C-17.13850342 12.6663501 -17.95278809 12.64129395 -18.79174805 12.61547852 C-21.24794123 12.28775722 -22.92456467 11.53754705 -25.0625 10.3125 C-23.84675564 6.53018423 -21.58302446 5.15551386 -18.20703125 3.2421875 C-12.12536047 0.60568905 -6.52614972 -0.04575799 0 0 Z " fill="#FBFBFB" transform="translate(724.0625,511.6875)"/>
<path d="M0 0 C0.3077302 6.38173817 -0.69757116 11.49626454 -2.625 17.5625 C-2.89642822 18.43293945 -3.16785645 19.30337891 -3.44750977 20.20019531 C-8.1926009 35.14661577 -12.72954524 48.62444338 -27 57 C-32.32352914 59.24509792 -37.11577061 59.27607625 -42.7890625 59.23046875 C-43.72873871 59.23001053 -44.66841492 59.22955231 -45.63656616 59.2290802 C-47.62181869 59.22606685 -49.60706905 59.21820808 -51.59228516 59.20581055 C-54.59416322 59.18768618 -57.59572943 59.18530029 -60.59765625 59.18554688 C-92.47135501 59.12964964 -92.47135501 59.12964964 -101.625 51.9375 C-103 50 -103 50 -103 47 C-103.75667969 46.95359375 -104.51335938 46.9071875 -105.29296875 46.859375 C-108 46 -108 46 -109.80078125 43.453125 C-110.29964844 42.39609375 -110.79851563 41.3390625 -111.3125 40.25 C-111.82425781 39.20328125 -112.33601562 38.1565625 -112.86328125 37.078125 C-113.96427485 34.09674028 -114.33288683 32.13703521 -114 29 C-113 28 -113 28 -109.5625 27.5625 C-102.93099094 27.6102087 -97.83908022 32.03519084 -92.58984375 35.66796875 C-84.52289656 39.81703209 -74.0538238 36.91378321 -65.8269043 34.33959961 C-63.54140407 33.58579179 -61.2698538 32.79968125 -59 32 C-58.12762695 31.69465332 -57.25525391 31.38930664 -56.35644531 31.07470703 C-43.0155975 26.34322237 -31.89979117 21.27682467 -20.9296875 12.234375 C-17.25175152 9.42933583 -13.41809307 6.95393143 -9.5 4.5 C-8.79278809 4.05430664 -8.08557617 3.60861328 -7.35693359 3.14941406 C-2.25676306 0 -2.25676306 0 0 0 Z " fill="#FCFCFC" transform="translate(795,600)"/>
<path d="M0 0 C0.99 0.33 1.98 0.66 3 1 C3.94952027 3.8485608 4.13146325 5.63645828 4.14526367 8.59155273 C4.15164352 9.51939072 4.15802338 10.4472287 4.16459656 11.40318298 C4.16570938 12.40321854 4.1668222 13.40325409 4.16796875 14.43359375 C4.17296135 15.97781761 4.17296135 15.97781761 4.17805481 17.55323792 C4.18311897 19.7312068 4.18546329 21.90918344 4.18530273 24.0871582 C4.18748909 27.42086552 4.20565 30.75424188 4.22460938 34.08789062 C4.2275434 36.20312387 4.22952814 38.31835868 4.23046875 40.43359375 C4.23765427 41.43160507 4.24483978 42.42961639 4.25224304 43.45787048 C4.24916641 44.38886063 4.24608978 45.31985077 4.24291992 46.27905273 C4.24434494 47.09607162 4.24576996 47.91309052 4.24723816 48.75486755 C3.97498931 51.22711828 3.23631544 52.85965967 2 55 C0.68 54.67 -0.64 54.34 -2 54 C-2 53.01 -2 52.02 -2 51 C-2.67804688 51.433125 -3.35609375 51.86625 -4.0546875 52.3125 C-10.35306204 56.08105651 -15.60824023 58.76448459 -23 57 C-28.58767317 54.5751607 -33.03819723 51.11417473 -35.40625 45.40234375 C-37.06722168 38.68196492 -37.41542035 31.53738097 -33.8125 25.4375 C-31.12149991 21.81382375 -28.05687874 19.02843937 -24 17 C-16.42084986 16.29843982 -11.27235399 16.63662331 -5 21 C-4.34 21 -3.68 21 -3 21 C-2.98018066 20.43490723 -2.96036133 19.86981445 -2.93994141 19.28759766 C-2.84481764 16.73292003 -2.73508942 14.17907459 -2.625 11.625 C-2.5940625 10.73554687 -2.563125 9.84609375 -2.53125 8.9296875 C-2.49257812 8.07890625 -2.45390625 7.228125 -2.4140625 6.3515625 C-2.3826416 5.56604004 -2.3512207 4.78051758 -2.31884766 3.97119141 C-2 2 -2 2 0 0 Z " fill="#0A0A0A" transform="translate(1100,1139)"/>
<path d="M0 0 C2.02433206 1.65497863 2.91980369 2.53794173 3.3742218 5.15611267 C3.37359238 5.99010086 3.37296295 6.82408905 3.37231445 7.68334961 C3.38165764 9.10513771 3.38165764 9.10513771 3.39118958 10.5556488 C3.38197983 11.57755814 3.37277008 12.59946747 3.36328125 13.65234375 C3.36402901 15.22986168 3.36402901 15.22986168 3.36479187 16.83924866 C3.36245044 19.06431974 3.35271791 21.28939343 3.33618164 23.5144043 C3.31261656 26.92065127 3.31561701 30.32611426 3.32226562 33.73242188 C3.31668798 35.89323384 3.30957756 38.0540425 3.30078125 40.21484375 C3.30214836 41.7446714 3.30214836 41.7446714 3.30354309 43.30540466 C3.29401108 44.25641556 3.28447906 45.20742645 3.2746582 46.18725586 C3.27005081 47.02203964 3.26544342 47.85682343 3.26069641 48.71690369 C2.9768021 51.20315983 2.24524513 52.84711846 1 55 C0.01 54.67 -0.98 54.34 -2 54 C-2 52.68 -2 51.36 -2 50 C-2.92232422 50.63228516 -2.92232422 50.63228516 -3.86328125 51.27734375 C-4.67152344 51.82519531 -5.47976563 52.37304688 -6.3125 52.9375 C-7.11300781 53.48277344 -7.91351562 54.02804687 -8.73828125 54.58984375 C-12.97440126 57.23101702 -17.12443581 57.61815189 -22 57 C-27.88755241 55.10602634 -31.55494131 52.06626277 -35 47 C-37.87092944 40.84800834 -37.92404474 34.1759983 -35.875 27.75 C-33.62982649 22.40840237 -29.31133321 19.17802873 -24 17 C-16.48265037 16.08816351 -11.2053385 16.68324278 -5 21 C-4.34 21 -3.68 21 -3 21 C-2.98018066 20.43490723 -2.96036133 19.86981445 -2.93994141 19.28759766 C-2.84481764 16.73292003 -2.73508942 14.17907459 -2.625 11.625 C-2.5940625 10.73554687 -2.563125 9.84609375 -2.53125 8.9296875 C-2.49257813 8.07890625 -2.45390625 7.228125 -2.4140625 6.3515625 C-2.3826416 5.56604004 -2.3512207 4.78051758 -2.31884766 3.97119141 C-2 2 -2 2 0 0 Z " fill="#0B0B0B" transform="translate(783,1139)"/>
<path d="M0 0 C20.31648052 -0.64496764 42.47305277 2.00260488 57.8125 16.375 C66.82937484 26.04527156 66.82937484 26.04527156 67.16015625 31.7734375 C67.10730469 32.50820313 67.05445313 33.24296875 67 34 C42.63113769 34.87465508 25.31525348 28.08749197 7.40380859 11.52392578 C4.52407774 8.75727094 1.73705252 5.90732998 -1 3 C-0.67 2.01 -0.34 1.02 0 0 Z " fill="#FBFBFB" transform="translate(692,704)"/>
<path d="M0 0 C4.2879661 2.50131356 7.33373721 5.91747442 9.5625 10.375 C10.48809578 18.73180762 9.59559023 25.49990252 4.5625 32.375 C-0.02186358 36.65373934 -4.38335455 36.74590706 -10.5 36.875 C-11.18489502 36.89385254 -11.86979004 36.91270508 -12.57543945 36.93212891 C-17.65630686 36.86710754 -20.55785845 35.59295341 -24.4375 32.375 C-26.08203125 30.33984375 -26.08203125 30.33984375 -27.25 28.3125 C-27.64832031 27.64089844 -28.04664063 26.96929688 -28.45703125 26.27734375 C-30.80719771 21.71745902 -31.25264315 17.39248309 -30.4375 12.375 C-27.97488442 6.75914602 -24.1666843 2.16308444 -18.7734375 -0.8125 C-12.65009636 -2.94235779 -5.90982585 -2.64769135 0 0 Z " fill="#FAFAFA" transform="translate(678.4375,1157.625)"/>
<path d="M0 0 C5.85548901 -0.32084871 10.16375199 0.77783984 14.96875 4.1875 C19.8950453 8.75119996 22.03007562 13.372364 22.34375 20 C22.22855398 25.15310216 20.96973939 28.99579547 17.96875 33.1875 C13.00519713 37.90892834 8.78302718 38.40988064 2.15625 38.5 C1.10727539 38.54350586 1.10727539 38.54350586 0.03710938 38.58789062 C-5.11464632 38.6505406 -7.92213511 37.52844208 -12.03125 34.1875 C-17.37748558 28.263293 -17.38040542 23.33378515 -17.30859375 15.578125 C-16.83923999 9.84011008 -14.12663032 7.08483306 -10.09375 3.375 C-6.42439595 0.75403282 -4.35599313 0.40209167 0 0 Z " fill="#FBFBFB" transform="translate(1133.03125,1155.8125)"/>
<path d="M0 0 C0.7734375 0.495 0.7734375 0.495 1.5625 1 C1.0151282 6.11673641 -0.72789278 10.20029644 -3.125 14.6875 C-3.51365234 15.41718994 -3.90230469 16.14687988 -4.30273438 16.89868164 C-11.1347467 29.28104807 -19.93428072 40.78867295 -29.62890625 51.0703125 C-31.17580742 52.72078589 -32.56013539 54.39738976 -33.9375 56.1875 C-37.3153025 59.98752781 -41.07445663 63.36188075 -45.4375 66 C-46.7575 66 -48.0775 66 -49.4375 66 C-49.81689317 60.40931956 -48.74284477 56.65156524 -46.125 51.8125 C-45.76962158 51.13251953 -45.41424316 50.45253906 -45.0480957 49.75195312 C-43.8594441 47.49308302 -42.64823574 45.24709921 -41.4375 43 C-40.57261381 41.35823243 -39.70803786 39.71630138 -38.84375 38.07421875 C-21.1853396 4.90664398 -21.1853396 4.90664398 -12.0625 -0.375 C-7.84316964 -1.37960247 -4.0599621 -1.66562548 0 0 Z " fill="#050505" transform="translate(1182.4375,721)"/>
<path d="M0 0 C1.875 1.5 1.875 1.5 3 3 C0.51647186 7.86771515 -2.1224919 11.36516939 -6.08447266 15.11425781 C-7.79887317 16.80200055 -9.33827145 18.52575762 -10.8828125 20.3671875 C-15.88882676 26.13436566 -21.32752345 31.47681149 -26.73413086 36.86450195 C-28.56545491 38.69044623 -30.39134688 40.52170092 -32.21679688 42.35351562 C-33.3955127 43.5315709 -34.57453854 44.70931609 -35.75390625 45.88671875 C-36.2915712 46.42640793 -36.82923615 46.96609711 -37.38319397 47.5221405 C-46.91913666 57 -46.91913666 57 -50 57 C-51.06864107 43.37482636 -44.54388422 30.04878998 -35.875 19.875 C-27.13453375 10.66681649 -13.54997871 -1.21949808 0 0 Z " fill="#FAFAFA" transform="translate(845,704)"/>
<path d="M0 0 C1.65 0.33 3.3 0.66 5 1 C5 2.32 5 3.64 5 5 C5.54527344 4.6390625 6.09054687 4.278125 6.65234375 3.90625 C12.18687457 0.50038488 16.49507539 -1.13129124 23 0 C27.28770503 1.64911732 30.51702735 4.02922921 34 7 C34.48210938 6.57847656 34.96421875 6.15695312 35.4609375 5.72265625 C36.09257813 5.17480469 36.72421875 4.62695312 37.375 4.0625 C38.00148438 3.51722656 38.62796875 2.97195313 39.2734375 2.41015625 C43.38703403 -0.94959114 47.90856095 -0.43081407 53 0 C58.36787898 1.88869816 61.45991584 4.91983169 64 10 C64.09699846 11.93557678 64.13076201 13.87449537 64.1328125 15.8125 C64.13410156 16.97007813 64.13539063 18.12765625 64.13671875 19.3203125 C64.13285156 20.53460937 64.12898437 21.74890625 64.125 23 C64.12886719 24.21429687 64.13273438 25.42859375 64.13671875 26.6796875 C64.13542969 27.83726563 64.13414062 28.99484375 64.1328125 30.1875 C64.13168457 31.25355469 64.13055664 32.31960938 64.12939453 33.41796875 C64 36 64 36 63 38 C61.68 38 60.36 38 59 38 C57.75372069 35.50744139 57.8421914 33.73604903 57.7890625 30.94921875 C57.74652344 29.43618164 57.74652344 29.43618164 57.703125 27.89257812 C57.65133146 25.76774817 57.6069755 23.642723 57.5703125 21.51757812 C57.539375 20.50501953 57.5084375 19.49246094 57.4765625 18.44921875 C57.4468335 17.06222778 57.4468335 17.06222778 57.41650391 15.6472168 C56.87554021 12.2089581 55.47907597 9.47907597 53 7 C48.52309602 6.56889073 44.33657934 6.54499427 40.0625 8 C34.21885276 13.66656702 34.57643721 21.48619405 34.37792969 29.09619141 C34.25667891 32.89680544 34.15811016 34.76283477 32 38 C30.0625 37.6875 30.0625 37.6875 28 37 C27.03163548 34.09490644 26.83627439 32.06613729 26.75390625 29.03515625 C26.72103516 28.07029297 26.68816406 27.10542969 26.65429688 26.11132812 C26.5932199 24.08279273 26.53591302 22.05414023 26.48242188 20.02539062 C26.44826172 19.05923828 26.41410156 18.09308594 26.37890625 17.09765625 C26.3538501 16.21601807 26.32879395 15.33437988 26.30297852 14.42602539 C25.98071748 11.84560002 25.38410126 10.19167265 24 8 C20.3032604 6.1516302 16.03556179 6.52983746 12 7 C8.47132662 9.38185453 7.25665807 12.00580879 6 16 C5.64253672 19.39074185 5.53720231 22.78059909 5.4375 26.1875 C5.37767765 27.99362579 5.31406254 29.79963118 5.24609375 31.60546875 C5.22216553 32.40106201 5.1982373 33.19665527 5.17358398 34.01635742 C5 36 5 36 4 38 C2.68 38 1.36 38 0 38 C-1.52348035 34.95303929 -1.14211557 31.77919939 -1.1328125 28.4375 C-1.13376923 27.69040771 -1.13472595 26.94331543 -1.13571167 26.17358398 C-1.13639249 24.59326086 -1.13454503 23.01293494 -1.13037109 21.43261719 C-1.12502142 19.0097019 -1.13031935 16.586972 -1.13671875 14.1640625 C-1.13605795 12.63020792 -1.13477675 11.09635346 -1.1328125 9.5625 C-1.13483673 8.83538818 -1.13686096 8.10827637 -1.13894653 7.35913086 C-1.1149618 2.22992361 -1.1149618 2.22992361 0 0 Z " fill="#0B0B0B" transform="translate(510,1156)"/>
<path d="M0 0 C3.6270145 2.70514832 6.19499159 5.55401022 7.5 9.9375 C7.79516383 13.3023677 7.74384086 16.57114148 7.5 19.9375 C0.43993115 20.87246219 -6.44612235 21.05836777 -13.5625 21 C-14.61888672 20.99548828 -15.67527344 20.99097656 -16.76367188 20.98632812 C-19.34250908 20.97465918 -21.92122294 20.95828885 -24.5 20.9375 C-23.56862408 22.23358947 -22.6296434 23.52421632 -21.6875 24.8125 C-21.16542969 25.53179688 -20.64335938 26.25109375 -20.10546875 26.9921875 C-17.9623199 29.5889956 -16.32779845 30.85156062 -12.94140625 31.203125 C-11.99136719 31.19796875 -11.04132812 31.1928125 -10.0625 31.1875 C-9.11503906 31.19265625 -8.16757812 31.1978125 -7.19140625 31.203125 C-4.44706002 30.93227515 -2.90332746 30.20349262 -0.5 28.9375 C2.25 29.3125 2.25 29.3125 4.5 29.9375 C3.59710394 32.19474016 2.92804286 33.63881653 0.91015625 35.046875 C-5.01712471 37.23718304 -13.94676607 36.97925638 -19.96484375 35.21484375 C-24.49831755 32.76458548 -27.3451194 29.0740291 -29.75 24.625 C-31.45306784 18.52234025 -30.77370019 12.78415762 -28.5 6.9375 C-22.20617023 -2.4133328 -10.15535429 -5.7515371 0 0 Z " fill="#0C0C0C" transform="translate(613.5,1158.0625)"/>
<path d="M0 0 C0.68481445 -0.02312256 1.36962891 -0.04624512 2.07519531 -0.07006836 C7.78605225 0.01748341 10.09628928 1.71590337 13.9375 5.625 C17.74404242 10.72413838 18.38213855 15.40006034 17.9375 21.625 C8.04951138 24.92099621 -3.71164335 23.74458628 -14.0625 23.625 C-13.13112408 24.92108947 -12.1921434 26.21171632 -11.25 27.5 C-10.72792969 28.21929688 -10.20585937 28.93859375 -9.66796875 29.6796875 C-7.5248199 32.2764956 -5.89029845 33.53906062 -2.50390625 33.890625 C-1.55386719 33.88546875 -0.60382813 33.8803125 0.375 33.875 C1.32246094 33.88015625 2.26992188 33.8853125 3.24609375 33.890625 C5.99043998 33.61977515 7.53417254 32.89099262 9.9375 31.625 C12.6875 32 12.6875 32 14.9375 32.625 C14.03460394 34.88224016 13.36554286 36.32631653 11.34765625 37.734375 C5.42037529 39.92468304 -3.50926607 39.66675638 -9.52734375 37.90234375 C-14.21300605 35.36983043 -17.39499859 31.62750422 -19.0625 26.625 C-20.19755942 11.81340494 -20.19755942 11.81340494 -15.0625 5.625 C-14.64613281 5.12226562 -14.22976563 4.61953125 -13.80078125 4.1015625 C-9.81229175 0.31197405 -5.29431814 0.11004773 0 0 Z " fill="#0A0A0A" transform="translate(335.0625,1155.375)"/>
<path d="M0 0 C1.32 0.33 2.64 0.66 4 1 C4 2.32 4 3.64 4 5 C5.0725 4.360625 6.145 3.72125 7.25 3.0625 C12.73118963 -0.20513228 18.70149459 -1.07027235 25 0 C27.28144805 1.42738777 29.21593818 3.04311558 31.265625 4.78125 C33.00358695 6.29932177 33.00358695 6.29932177 35.5625 5.625 C36.7690625 4.820625 36.7690625 4.820625 38 4 C43.05378983 0.75794614 46.83766729 -1.14811522 53 0 C57.28595252 1.36720349 60.10379019 2.71093109 62.7109375 6.4609375 C64.49776267 11.36658478 64.3983316 15.82263787 64.3125 21 C64.31572266 21.97195313 64.31894531 22.94390625 64.32226562 23.9453125 C64.28428158 29.01445628 64.01041192 33.25831133 62 38 C61.01 37.505 61.01 37.505 60 37 C59.97421875 35.90042969 59.9484375 34.80085938 59.921875 33.66796875 C59.48607439 20.88080943 59.48607439 20.88080943 55 9 C51.74004414 6.82669609 50.77020034 6.75078541 47 6.8125 C46.13375 6.81894531 45.2675 6.82539062 44.375 6.83203125 C41.85072535 6.91169563 41.85072535 6.91169563 39 8 C37.81608777 10.37625345 37.81608777 10.37625345 37 13 C36.67 13.99 36.34 14.98 36 16 C35.86489901 17.52946156 35.77617141 19.06331348 35.71875 20.59765625 C35.68136719 21.48130859 35.64398437 22.36496094 35.60546875 23.27539062 C35.53500864 25.13736421 35.46469676 26.99934341 35.39453125 28.86132812 C35.35714844 29.74369141 35.31976562 30.62605469 35.28125 31.53515625 C35.25095703 32.343479 35.22066406 33.15180176 35.18945312 33.98461914 C35 36 35 36 34 38 C32.68 38 31.36 38 30 38 C29.07803055 35.23409164 28.85375138 33.44223991 28.7890625 30.578125 C28.76070312 29.71703125 28.73234375 28.8559375 28.703125 27.96875 C28.6514963 26.17207136 28.6070941 24.3751689 28.5703125 22.578125 C28.37171263 17.01732854 27.66947312 12.9181426 25 8 C20.55890476 5.77945238 14.66575671 6.46837552 10.0625 7.9375 C3.75981338 14.24018662 4.51499626 24.07075828 4.2109375 32.40234375 C4 36 4 36 3 38 C1.68 38 0.36 38 -1 38 C-2.78101389 32.65695832 -2.18591237 26.86309289 -2.18530273 21.26660156 C-2.18749198 19.00827264 -2.20566769 16.7504302 -2.22460938 14.4921875 C-2.227543 13.05729334 -2.229528 11.62239685 -2.23046875 10.1875 C-2.23457764 8.88167969 -2.23868652 7.57585937 -2.24291992 6.23046875 C-2 3 -2 3 0 0 Z " fill="#0C0C0C" transform="translate(891,1156)"/>
<path d="M0 0 C5.58593618 2.64062438 9.39536976 7.01997241 12.3125 12.4375 C13.18055955 15.67299469 13.04293243 18.66297939 13 22 C12.13197754 22.02505615 11.26395508 22.0501123 10.36962891 22.07592773 C7.15286837 22.17099484 3.93627151 22.27023203 0.71972656 22.37231445 C-0.6731259 22.41565846 -2.06603131 22.45733396 -3.45898438 22.49731445 C-5.45976651 22.55502932 -7.46035859 22.61921869 -9.4609375 22.68359375 C-11.26763916 22.73858032 -11.26763916 22.73858032 -13.11083984 22.79467773 C-15.93996367 22.81052987 -15.93996367 22.81052987 -18 24 C-17.42415568 26.38564077 -16.77772405 28.66682784 -16 31 C-12.30225642 32.98447777 -9.09023035 33.2709999 -4.9375 33.25 C-3.40416016 33.25773437 -3.40416016 33.25773437 -1.83984375 33.265625 C1.01383995 32.99870548 2.50780402 32.30568271 5 31 C6.32 31 7.64 31 9 31 C7.84826645 33.46800047 6.95216435 35.04783565 5 37 C-0.93881255 39.109111 -7.83085277 38.77844129 -14 38 C-19.44400482 35.33884712 -22.99798222 30.53591611 -25.375 25.0390625 C-26.86790221 20.16846903 -26.73495971 15.88056688 -24.3125 11.3125 C-18.11879653 1.7384302 -11.13520568 -1.34651264 0 0 Z " fill="#0B0B0B" transform="translate(823,1156)"/>
<path d="M0 0 C3.53779988 2.80075824 4.46550853 4.123556 6 8.375 C6.38546274 12.7981103 6.32748881 17.18876535 6.25 21.625 C6.24484375 22.82125 6.2396875 24.0175 6.234375 25.25 C6.15459389 34.06581221 6.15459389 34.06581221 5 36.375 C3.35 36.375 1.7 36.375 0 36.375 C0 35.385 0 34.395 0 33.375 C-0.82371094 33.85839844 -1.64742188 34.34179688 -2.49609375 34.83984375 C-6.44823528 36.57138402 -9.82267278 36.92562373 -14.0625 36.9375 C-14.75666016 36.97423828 -15.45082031 37.01097656 -16.16601562 37.04882812 C-19.00959166 37.07313219 -21.29787655 36.93534432 -23.56933594 35.12255859 C-26.81996538 31.37462263 -28.17739688 28.34211263 -28 23.375 C-24.97706274 18.61158371 -22.25984778 16.57445845 -17 14.375 C-13.421875 13.8984375 -13.421875 13.8984375 -9.75 13.75 C-5.21130117 13.71050974 -5.21130117 13.71050974 -1 12.375 C-1.25689948 9.20657307 -1.58270747 7.76537043 -3.9375 5.5625 C-10.61236547 2.97428686 -18.06796578 4.34803197 -25 5.375 C-23.63016497 2.21384224 -23.0109362 1.3822908 -20 -0.625 C-13.62912909 -2.26534052 -6.01504256 -3.08430906 0 0 Z " fill="#0B0B0B" transform="translate(466,1157.625)"/>
<path d="M0 0 C3.17941281 1.79465113 5.18051536 3.64722668 7.125 6.75 C7.50596557 9.86121884 7.72203175 11.82128394 6 14.5 C-1.20028197 19.30018798 -10.60202731 18.95049459 -18.9375 19 C-19.80955078 19.020625 -20.68160156 19.04125 -21.58007812 19.0625 C-27.56174588 19.09872509 -32.03676966 18.46282016 -36.5546875 14.14453125 C-37.66145833 12.6796875 -38.76822917 11.21484375 -39.875 9.75 C-38.92176052 6.26860363 -38.23728791 4.98561746 -35.16015625 2.984375 C-34.09667969 2.49453125 -33.03320312 2.0046875 -31.9375 1.5 C-30.87660156 0.99984375 -29.81570313 0.4996875 -28.72265625 -0.015625 C-20.19637593 -3.71151606 -8.49616913 -4.10333502 0 0 Z " fill="#F9F9F9" transform="translate(729.875,534.25)"/>
<path d="M0 0 C0.89460937 -0.02900391 1.78921875 -0.05800781 2.7109375 -0.08789062 C8.38115494 -0.14225112 11.89558792 0.30935708 16.25 4.3125 C18.11328125 7.22265625 18.11328125 7.22265625 19.5625 10.375 C20.29919922 11.93927734 20.29919922 11.93927734 21.05078125 13.53515625 C22.25 16.3125 22.25 16.3125 23.25 19.3125 C25.61449634 20.76757467 28.08951861 21.63304347 30.6875 22.625 C34.40868902 24.38766849 36.52525532 26.26719713 39.25 29.3125 C39.58 29.6425 39.91 29.9725 40.25 30.3125 C40.5132246 34.26086905 40.33997373 36.91629269 38.25 40.3125 C32.58979288 39.92214089 30.00792996 38.79584143 26 34.8125 C18.59962844 27.71459594 10.67920954 21.3768226 2.5625 15.125 C2.0152124 14.703396 1.4679248 14.28179199 0.90405273 13.84741211 C-2.81859719 10.99366188 -6.59762614 8.23218092 -10.45703125 5.56640625 C-10.88371094 5.15261719 -11.31039062 4.73882812 -11.75 4.3125 C-11.75 3.3225 -11.75 2.3325 -11.75 1.3125 C-8.1450387 -0.48998065 -3.97001652 0.0421744 0 0 Z " fill="#F9F9F9" transform="translate(774.75,503.6875)"/>
<path d="M0 0 C10.89 0 21.78 0 33 0 C33.495 1.98 33.495 1.98 34 4 C28.12905562 6.57996518 22.40390015 6.22552426 16.125 6.125 C15.05507813 6.11597656 13.98515625 6.10695313 12.8828125 6.09765625 C10.25511144 6.07419463 7.62752628 6.03832696 5 6 C5 11.61 5 17.22 5 23 C8.34125 22.938125 8.34125 22.938125 11.75 22.875 C18.6661959 22.81263026 25.21785055 23.58547349 32 25 C31 28 31 28 29 29 C20.71213054 30.24318042 12.35644692 30.0827371 4 30 C4.33 35.94 4.66 41.88 5 48 C7.36865234 47.98259766 7.36865234 47.98259766 9.78515625 47.96484375 C11.87760298 47.95546058 13.97005099 47.94636095 16.0625 47.9375 C17.10083984 47.92912109 18.13917969 47.92074219 19.20898438 47.91210938 C29.91277405 47.87812909 29.91277405 47.87812909 35 49 C35.33 49.66 35.66 50.32 36 51 C32.93386053 52.53306974 29.72919216 52.12141666 26.3671875 52.09765625 C25.36764038 52.09614563 25.36764038 52.09614563 24.34790039 52.09460449 C21.85691611 52.08936955 19.36595634 52.07540829 16.875 52.0625 C8.521875 52.0315625 8.521875 52.0315625 0 52 C0 34.84 0 17.68 0 0 Z " fill="#040404" transform="translate(243,1142)"/>
<path d="M0 0 C4.90905027 1.69277595 8.03461002 4.42607922 10.34375 9.07421875 C11.91997502 13.69968861 11.50901553 17.67655961 9.75 22.25 C7.29061775 26.11474354 5.39676672 28.53441109 1 30 C-3.06311767 30.48953225 -7.16483044 30.90076551 -10.91796875 29.05859375 C-14.15707684 26.50729627 -16.09293588 23.99108211 -17 20 C-17.58436003 14.27327174 -17.33412871 9.89005544 -14 5 C-9.75118197 0.45475281 -6.1543232 -1.26181481 0 0 Z " fill="#FAFAFA" transform="translate(769,1160)"/>
<path d="M0 0 C5.0817592 3.18855479 8.33148011 7.17060863 10 13 C10.27974444 18.23646624 9.38960348 22.88405292 6 27 C2.08866796 30.54464466 -2.19834655 30.61544562 -7.265625 30.4921875 C-11.6035176 29.71136683 -14.33700777 27.44179185 -17 24 C-18.5635581 19.30932571 -18.82481503 14.88237282 -18 10 C-13.82117854 2.85926662 -8.3954739 -1.01324685 0 0 Z " fill="#FAFAFA" transform="translate(1088,1160)"/>
<path d="M0 0 C4.2879661 2.50131356 7.33373721 5.91747442 9.5625 10.375 C10.48809578 18.73180762 9.59559023 25.49990252 4.5625 32.375 C-0.02186358 36.65373934 -4.38335455 36.74590706 -10.5 36.875 C-11.18489502 36.89385254 -11.86979004 36.91270508 -12.57543945 36.93212891 C-17.65630686 36.86710754 -20.55785845 35.59295341 -24.4375 32.375 C-26.08203125 30.33984375 -26.08203125 30.33984375 -27.25 28.3125 C-27.64832031 27.64089844 -28.04664063 26.96929688 -28.45703125 26.27734375 C-30.80719771 21.71745902 -31.25264315 17.39248309 -30.4375 12.375 C-27.97488442 6.75914602 -24.1666843 2.16308444 -18.7734375 -0.8125 C-12.65009636 -2.94235779 -5.90982585 -2.64769135 0 0 Z M-22.8125 10.1875 C-25.37735252 15.21855686 -24.95979793 18.69204001 -23.3125 24 C-21.09501169 27.99147895 -19.34342549 29.98804554 -15.4375 32.375 C-10.76112766 33.3303879 -7.40143691 32.84787471 -3.125 30.75 C1.4007039 26.75054074 3.78074925 23.52951692 4.1875 17.4375 C3.99265219 12.65290374 2.56914006 10.05726525 -0.796875 6.71484375 C-4.10617032 4.01225257 -6.66664438 3.45909334 -10.875 3 C-16.46207217 3.58811286 -19.25228423 5.97145501 -22.8125 10.1875 Z " fill="#0C0C0C" transform="translate(678.4375,1157.625)"/>
<path d="M0 0 C5.85548901 -0.32084871 10.16375199 0.77783984 14.96875 4.1875 C19.8950453 8.75119996 22.03007562 13.372364 22.34375 20 C22.22855398 25.15310216 20.96973939 28.99579547 17.96875 33.1875 C13.00519713 37.90892834 8.78302718 38.40988064 2.15625 38.5 C1.10727539 38.54350586 1.10727539 38.54350586 0.03710938 38.58789062 C-5.11464632 38.6505406 -7.92213511 37.52844208 -12.03125 34.1875 C-17.37748558 28.263293 -17.38040542 23.33378515 -17.30859375 15.578125 C-16.83923999 9.84011008 -14.12663032 7.08483306 -10.09375 3.375 C-6.42439595 0.75403282 -4.35599313 0.40209167 0 0 Z M-10.03125 11.1875 C-12.72818685 15.62469002 -13.0701172 20.14046608 -12.03125 25.1875 C-9.36623769 29.08525865 -5.92349085 31.59267277 -2.03125 34.1875 C2.08693669 34.78132093 5.86219177 34.58094293 9.78125 33.1875 C13.93103125 29.39341428 16.15526735 24.69437798 16.46875 19.0625 C15.72912288 13.33038982 13.5445616 10.58007769 9.28125 6.8125 C1.49058843 2.99066602 -4.54426675 4.56056179 -10.03125 11.1875 Z " fill="#0B0B0B" transform="translate(1133.03125,1155.8125)"/>
<path d="M0 0 C1.32 0.66 2.64 1.32 4 2 C4.01458252 2.6705542 4.02916504 3.3411084 4.04418945 4.03198242 C4.118883 7.08438822 4.21547299 10.13572585 4.3125 13.1875 C4.33505859 14.24259766 4.35761719 15.29769531 4.38085938 16.38476562 C4.41630859 17.40634766 4.45175781 18.42792969 4.48828125 19.48046875 C4.51446533 20.41785889 4.54064941 21.35524902 4.56762695 22.32104492 C5.21073048 26.30567223 6.98657675 28.98657675 9.8125 31.8125 C12.77565641 33.42107062 14.66759369 33.40804975 18 33 C23.72470206 30.68285869 25.3604559 26.27908819 28 21 C28.15123831 19.4804236 28.24881693 17.95527498 28.31640625 16.4296875 C28.35830078 15.53378906 28.40019531 14.63789062 28.44335938 13.71484375 C28.48267578 12.77769531 28.52199219 11.84054687 28.5625 10.875 C28.60568359 9.93011719 28.64886719 8.98523437 28.69335938 8.01171875 C28.79959072 5.67462908 28.90163176 3.3374317 29 1 C30.32 0.67 31.64 0.34 33 0 C34.85062306 3.9475058 35.25683666 7.09355042 35.265625 11.4375 C35.26949219 13.27441406 35.26949219 13.27441406 35.2734375 15.1484375 C35.26570312 16.41945313 35.25796875 17.69046875 35.25 19 C35.26160156 20.90652344 35.26160156 20.90652344 35.2734375 22.8515625 C35.27085937 24.07617188 35.26828125 25.30078125 35.265625 26.5625 C35.26336914 27.67753906 35.26111328 28.79257813 35.25878906 29.94140625 C34.9988401 33.01370875 34.30177698 35.22322051 33 38 C31.68 38 30.36 38 29 38 C29 36.35 29 34.7 29 33 C27.6078125 33.9590625 27.6078125 33.9590625 26.1875 34.9375 C21.52278228 37.95584676 18.11318215 38.23483032 12.625 38.375 C11.31789063 38.42398437 10.01078125 38.47296875 8.6640625 38.5234375 C4.07226562 37.86746652 2.76272173 36.66688521 0 33 C-1.63810498 28.89006689 -2.25570646 25.42654349 -2.265625 21.015625 C-2.26820313 19.91605469 -2.27078125 18.81648438 -2.2734375 17.68359375 C-2.26570312 16.55050781 -2.25796875 15.41742187 -2.25 14.25 C-2.25773438 13.10144531 -2.26546875 11.95289063 -2.2734375 10.76953125 C-2.27085937 9.67511719 -2.26828125 8.58070312 -2.265625 7.453125 C-2.26336914 6.45442383 -2.26111328 5.45572266 -2.25878906 4.42675781 C-2 2 -2 2 0 0 Z " fill="#0B0B0B" transform="translate(969,1156)"/>
<path d="M0 0 C1.32 0.33 2.64 0.66 4 1 C4 2.32 4 3.64 4 5 C4.51046875 4.6390625 5.0209375 4.278125 5.546875 3.90625 C11.90176544 -0.15006304 17.52233527 -1.31018912 25 0 C29.04095866 1.79862278 30.79370274 4.60163288 32.8125 8.5 C34.84215897 14.48215276 35.18247184 19.85991219 35.1875 26.125 C35.19974609 26.93582031 35.21199219 27.74664063 35.22460938 28.58203125 C35.22654297 29.36191406 35.22847656 30.14179687 35.23046875 30.9453125 C35.23457764 31.65187988 35.23868652 32.35844727 35.24291992 33.08642578 C35 35 35 35 33 38 C31.68 37.67 30.36 37.34 29 37 C28.9906543 36.40574219 28.98130859 35.81148437 28.97167969 35.19921875 C28.91747007 32.46535355 28.83392722 29.73310801 28.75 27 C28.73582031 26.06542969 28.72164062 25.13085938 28.70703125 24.16796875 C28.48286989 17.75695371 27.37822225 13.48643613 24 8 C20.01824879 6.0091244 15.31819333 6.33949712 11 7 C7.92835231 8.98557703 6.38939201 11.58261308 5.4140625 15.1328125 C4.71774292 19.95449713 4.60115549 24.80659947 4.39453125 29.66992188 C4.10210276 35.79579447 4.10210276 35.79579447 3 38 C1.68 38 0.36 38 -1 38 C-2.49107263 35.01785474 -2.16278536 31.96170199 -2.16796875 28.69140625 C-2.17296135 27.6076194 -2.17296135 27.6076194 -2.17805481 26.50193787 C-2.18311988 24.9728967 -2.18546326 23.44384447 -2.18530273 21.91479492 C-2.18748816 19.5751728 -2.2056448 17.23602297 -2.22460938 14.89648438 C-2.22754359 13.41145995 -2.2295282 11.92643328 -2.23046875 10.44140625 C-2.23765427 9.7413295 -2.24483978 9.04125275 -2.25224304 8.31996155 C-2.23497262 4.64876732 -2.0949823 3.14247344 0 0 Z " fill="#0A0A0A" transform="translate(1020,1156)"/>
<path d="M0 0 C1.921875 0.80859375 1.921875 0.80859375 4.671875 2.30859375 C4.671875 2.96859375 4.671875 3.62859375 4.671875 4.30859375 C3.55167969 4.28539062 2.43148438 4.2621875 1.27734375 4.23828125 C-0.19530584 4.21952138 -1.66796263 4.20132141 -3.140625 4.18359375 C-3.87861328 4.16683594 -4.61660156 4.15007812 -5.37695312 4.1328125 C-9.24058926 4.09784747 -11.03716168 4.1146182 -14.328125 6.30859375 C-14.39437739 8.69190211 -14.39437739 8.69190211 -13.328125 11.30859375 C-10.89591896 12.8480022 -8.67309925 14.06100664 -6.078125 15.24609375 C-0.47860126 17.83007436 3.15276455 20.13862647 6.671875 25.30859375 C6.796875 28.93359375 6.796875 28.93359375 5.671875 32.30859375 C0.89639582 37.08407293 -3.14059843 37.48123587 -9.703125 37.55859375 C-11.01023437 37.584375 -12.31734375 37.61015625 -13.6640625 37.63671875 C-17.48655006 37.29440643 -19.42264111 36.79900851 -22.328125 34.30859375 C-22.328125 32.98859375 -22.328125 31.66859375 -22.328125 30.30859375 C-15.578125 31.18359375 -15.578125 31.18359375 -13.328125 32.30859375 C-11.49775213 32.43005368 -9.66248367 32.4840256 -7.828125 32.49609375 C-6.8484375 32.51027344 -5.86875 32.52445313 -4.859375 32.5390625 C-2.158207 32.56539409 -2.158207 32.56539409 -0.328125 30.30859375 C-0.07881869 27.82684542 -0.07881869 27.82684542 -1.328125 25.30859375 C-3.78148583 23.74601894 -6.02225577 22.51368043 -8.640625 21.30859375 C-13.65368325 18.96185288 -17.22124834 17.11359172 -20.328125 12.30859375 C-21.515625 8.87109375 -21.515625 8.87109375 -21.328125 5.30859375 C-16.71120189 -2.26448876 -7.78306802 -2.3114145 0 0 Z " fill="#0B0B0B" transform="translate(381.328125,1156.69140625)"/>
<path d="M0 0 C1.32 0.33 2.64 0.66 4 1 C5.25003982 4.86795363 5.16175427 8.74572648 5.16796875 12.765625 C5.17129715 13.51785339 5.17462555 14.27008179 5.17805481 15.04510498 C5.18310918 16.63536978 5.1854636 18.22564515 5.18530273 19.81591797 C5.18747989 22.22772109 5.20562526 24.63905954 5.22460938 27.05078125 C5.22754562 28.60156095 5.22952887 30.1523428 5.23046875 31.703125 C5.23765427 32.41486877 5.24483978 33.12661255 5.25224304 33.85992432 C5.22438533 40.08236066 4.63462386 45.86590774 0.75 50.9375 C-2.39553697 53.29665272 -4.08549536 53.92011215 -8 54 C-11.375 53.0625 -11.375 53.0625 -14 52 C-14 51.01 -14 50.02 -14 49 C-11.47524538 47.73762269 -9.68799534 47.90143596 -6.875 47.9375 C-5.96492187 47.94652344 -5.05484375 47.95554687 -4.1171875 47.96484375 C-3.41851563 47.97644531 -2.71984375 47.98804688 -2 48 C-2.01047363 46.75911621 -2.02094727 45.51823242 -2.03173828 44.23974609 C-2.06802755 39.62161155 -2.09093298 35.00348954 -2.10986328 30.38525391 C-2.11990052 28.38913857 -2.1335332 26.39303786 -2.15087891 24.39697266 C-2.17522735 21.52242413 -2.18650605 18.64807059 -2.1953125 15.7734375 C-2.20563507 14.88570648 -2.21595764 13.99797546 -2.22659302 13.08334351 C-2.2274508 8.31115375 -1.85434578 4.48507854 0 0 Z " fill="#131313" transform="translate(633,1156)"/>
<path d="M0 0 C2.125 0.375 2.125 0.375 4 1 C4 2.32 4 3.64 4 5 C4.50789063 4.6390625 5.01578125 4.278125 5.5390625 3.90625 C9.83216238 1.01202536 12.63415923 -0.6707301 18 0 C18 1.65 18 3.3 18 5 C17.39671875 5.18433594 16.7934375 5.36867188 16.171875 5.55859375 C11.90956635 7.10539931 8.67144214 8.50088042 6.5 12.625 C4.19328131 18.83539647 4.35343726 25.63391647 4.17578125 32.18359375 C4 36 4 36 3 38 C1.68 38 0.36 38 -1 38 C-2.52264109 34.95471781 -2.16285537 31.77854754 -2.16796875 28.4375 C-2.17129715 27.69040771 -2.17462555 26.94331543 -2.17805481 26.17358398 C-2.18311966 24.59326799 -2.18546327 23.01294129 -2.18530273 21.43261719 C-2.18749134 19.00958757 -2.20565701 16.58701164 -2.22460938 14.1640625 C-2.22754292 12.6302099 -2.22952798 11.09635512 -2.23046875 9.5625 C-2.23765427 8.83538818 -2.24483978 8.10827637 -2.25224304 7.35913086 C-2.22882803 2.22882803 -2.22882803 2.22882803 0 0 Z " fill="#090909" transform="translate(292,1156)"/>
<path d="M0 0 C0.99 0.33 1.98 0.66 3 1 C3.94952027 3.8485608 4.13146325 5.63645828 4.14526367 8.59155273 C4.15483345 9.98330971 4.15483345 9.98330971 4.16459656 11.40318298 C4.16570938 12.40321854 4.1668222 13.40325409 4.16796875 14.43359375 C4.17129715 15.46307632 4.17462555 16.4925589 4.17805481 17.55323792 C4.18311897 19.7312068 4.18546329 21.90918344 4.18530273 24.0871582 C4.18748909 27.42086552 4.20565 30.75424188 4.22460938 34.08789062 C4.2275434 36.20312387 4.22952814 38.31835868 4.23046875 40.43359375 C4.24124702 41.93061073 4.24124702 41.93061073 4.25224304 43.45787048 C4.24916641 44.38886063 4.24608978 45.31985077 4.24291992 46.27905273 C4.24434494 47.09607162 4.24576996 47.91309052 4.24723816 48.75486755 C3.97498931 51.22711828 3.23631544 52.85965967 2 55 C1.01 55 0.02 55 -1 55 C-2.22170834 52.55658332 -2.13336209 50.96196031 -2.14526367 48.23071289 C-2.15164352 47.23950943 -2.15802338 46.24830597 -2.16459656 45.22706604 C-2.16570938 44.15311081 -2.1668222 43.07915558 -2.16796875 41.97265625 C-2.17129715 40.87279892 -2.17462555 39.77294159 -2.17805481 38.63975525 C-2.18312435 36.31037821 -2.18546313 33.98099388 -2.18530273 31.65161133 C-2.18748881 28.08077068 -2.20564335 24.51023905 -2.22460938 20.93945312 C-2.22754331 18.67968856 -2.22952811 16.41992252 -2.23046875 14.16015625 C-2.23765427 13.08822525 -2.24483978 12.01629425 -2.25224304 10.91188049 C-2.24916641 9.91752487 -2.24608978 8.92316925 -2.24291992 7.89868164 C-2.24434494 7.02313126 -2.24576996 6.14758087 -2.24723816 5.24549866 C-2 3 -2 3 0 0 Z " fill="#0D0D0D" transform="translate(423,1139)"/>
<path d="M0 0 C1.32 0.66 2.64 1.32 4 2 C4.02529174 9.22655492 4.04284219 16.4530985 4.05493164 23.6796875 C4.05996989 26.13965278 4.0668006 28.59961505 4.07543945 31.05957031 C4.08752723 34.58920025 4.09323329 38.11879069 4.09765625 41.6484375 C4.10281754 42.75367767 4.10797882 43.85891785 4.11329651 44.99765015 C4.11337204 46.01855743 4.11344757 47.03946472 4.11352539 48.09130859 C4.115746 48.99287689 4.11796661 49.89444519 4.12025452 50.82333374 C4 53 4 53 3 55 C1.68 54.67 0.36 54.34 -1 54 C-2.08760144 48.69760395 -2.1612632 43.57009582 -2.16796875 38.18359375 C-2.17129715 37.24951187 -2.17462555 36.31542999 -2.17805481 35.3530426 C-2.18310063 33.38551321 -2.18546386 31.41797531 -2.18530273 29.45043945 C-2.18749524 26.44403044 -2.20569228 23.43798511 -2.22460938 20.43164062 C-2.2275426 18.51562625 -2.22952787 16.59961014 -2.23046875 14.68359375 C-2.23765427 13.78764999 -2.24483978 12.89170624 -2.25224304 11.96861267 C-2.23601564 7.53205047 -2.09718219 4.03176393 0 0 Z " fill="#111111" transform="translate(848,1139)"/>
<path d="M0 0 C2.125 0.375 2.125 0.375 4 1 C4 2.32 4 3.64 4 5 C4.50789062 4.6390625 5.01578125 4.278125 5.5390625 3.90625 C9.83216238 1.01202536 12.63415923 -0.6707301 18 0 C18 1.65 18 3.3 18 5 C16.70990357 5.50403768 15.41786211 6.00309926 14.125 6.5 C13.40570312 6.7784375 12.68640625 7.056875 11.9453125 7.34375 C10 8 10 8 8 8 C5.49719357 14.38995961 4.52518765 20.09859813 4.375 26.9375 C4.32409945 28.61340055 4.26959181 30.28919665 4.2109375 31.96484375 C4.19337402 32.6930835 4.17581055 33.42132324 4.15771484 34.17163086 C4 36 4 36 3 38 C1.68 38 0.36 38 -1 38 C-2.52264109 34.95471781 -2.16285537 31.77854754 -2.16796875 28.4375 C-2.17129715 27.69040771 -2.17462555 26.94331543 -2.17805481 26.17358398 C-2.18311966 24.59326799 -2.18546327 23.01294129 -2.18530273 21.43261719 C-2.18749134 19.00958757 -2.20565701 16.58701164 -2.22460938 14.1640625 C-2.22754292 12.6302099 -2.22952798 11.09635512 -2.23046875 9.5625 C-2.23765427 8.83538818 -2.24483978 8.10827637 -2.25224304 7.35913086 C-2.22882803 2.22882803 -2.22882803 2.22882803 0 0 Z " fill="#0A0A0A" transform="translate(701,1156)"/>
<path d="M0 0 C3.94875937 2.17510221 6.53167414 4.5638007 7.9375 8.875 C7.958125 9.57625 7.97875 10.2775 8 11 C4.85122507 13.09918329 4.070235 13.25543871 0.47265625 13.265625 C-0.40197266 13.26820312 -1.27660156 13.27078125 -2.17773438 13.2734375 C-3.54381836 13.26183594 -3.54381836 13.26183594 -4.9375 13.25 C-5.84435547 13.25773437 -6.75121094 13.26546875 -7.68554688 13.2734375 C-8.56146484 13.27085938 -9.43738281 13.26828125 -10.33984375 13.265625 C-11.13769287 13.26336914 -11.93554199 13.26111328 -12.75756836 13.25878906 C-15.22227096 12.9743487 -16.86275824 12.23000569 -19 11 C-18.43997584 7.46340908 -17.32225676 6.04440308 -14.5625 3.8125 C-13.94503906 3.30332031 -13.32757812 2.79414062 -12.69140625 2.26953125 C-8.75420157 -0.68564547 -4.76807776 -0.82449632 0 0 Z " fill="#F8F8F8" transform="translate(822,1161)"/>
<path d="M0 0 C3.1875 1.8125 3.1875 1.8125 6 4 C6.61875 4.45375 7.2375 4.9075 7.875 5.375 C9.58761248 7.84877359 9.1945254 10.08211895 9 13 C5.77994193 14.61002904 2.28321844 14.14281455 -1.25 14.125 C-2.00152344 14.12886719 -2.75304687 14.13273437 -3.52734375 14.13671875 C-7.79532621 14.12927026 -11.79687789 13.84330157 -16 13 C-15.92430022 9.8206091 -15.63231963 7.69110312 -13.4453125 5.30078125 C-8.92403262 1.42673853 -6.16812944 -0.59308937 0 0 Z " fill="#F9F9F9" transform="translate(338,1160)"/>
<path d="M0 0 C3.79063838 2.0811348 6.903757 4.15688783 9 8 C9.1875 10.75 9.1875 10.75 9 13 C5.77994193 14.61002904 2.28321844 14.14281455 -1.25 14.125 C-2.00152344 14.12886719 -2.75304687 14.13273437 -3.52734375 14.13671875 C-7.79532621 14.12927026 -11.79687789 13.84330157 -16 13 C-15.92430022 9.8206091 -15.63231963 7.69110312 -13.4453125 5.30078125 C-8.92403262 1.42673853 -6.16812944 -0.59308937 0 0 Z " fill="#FAFAFA" transform="translate(606,1160)"/>
<path d="M0 0 C0.99 0.66 1.98 1.32 3 2 C2.9008844 6.1628554 1.97575526 8.5027765 -0.9375 11.375 C-4.74086036 14.36110937 -7.99953414 14.7682002 -12.75390625 14.45703125 C-15 14 -15 14 -17.625 12.3125 C-19.26868403 9.54812231 -19.56737985 8.16111629 -19 5 C-15.06665863 -0.90001205 -6.34329487 -0.74241661 0 0 Z " fill="#F4F4F4" transform="translate(463,1176)"/>
<path d="M0 0 C2.0625 0.4375 2.0625 0.4375 4 1 C4.38218767 2.65614657 4.71395102 4.32457024 5 6 C4 7 4 7 1.4375 7.0625 C0.2309375 7.0315625 0.2309375 7.0315625 -1 7 C-1.04254356 5.00045254 -1.04080783 2.99958364 -1 1 C-0.67 0.67 -0.34 0.34 0 0 Z " fill="#181818" transform="translate(633,1140)"/>
</svg>
