<svg version="1.0" xmlns="http://www.w3.org/2000/svg"
             width="70.000000pt" height="70.000000pt" viewBox="0 0 500.000000 500.000000"
             preserveAspectRatio="xMidYMid meet">
            <g transform="translate(0.000000,500.000000) scale(0.100000,-0.100000)"
               fill="#BB8A04" stroke="none">
                <path d="M1748 3207 c-32 -27 -48 -57 -48 -91 0 -28 62 -179 319 -766 225
                -516 224 -514 267 -535 60 -28 109 0 153 88 17 34 119 256 228 492 108 237
                220 482 250 545 l53 115 167 2 c93 2 174 -1 182 -6 18 -11 18 -9 -104 -276
                -118 -255 -276 -605 -305 -672 -12 -29 -25 -53 -29 -53 -4 0 -38 73 -77 162
                -38 89 -74 163 -80 165 -10 3 -84 -144 -84 -168 0 -15 82 -213 126 -307 48
                -100 94 -123 162 -82 37 23 27 3 232 455 68 149 170 371 227 494 124 266 143
                313 143 350 0 42 -39 93 -79 103 -18 5 -147 8 -287 6 -238 -3 -254 -4 -281
                -24 -20 -15 -54 -76 -116 -210 -78 -167 -348 -765 -406 -898 -14 -33 -25 -46
                -31 -40 -6 6 -42 84 -81 175 -256 591 -349 812 -343 818 3 3 56 9 117 12 62 3
                120 9 130 13 19 9 77 115 77 141 0 13 -30 15 -227 15 -222 0 -229 -1 -255 -23z"/>
            </g>
        </svg>
